<?xml version="1.0" encoding="UTF-8"?>
<svg version="1.1" xmlns="http://www.w3.org/2000/svg" width="2048" height="64">
<path d="M0 0 C675.84 0 1351.68 0 2048 0 C2048 16.5 2048 33 2048 50 C2043.92515676 50.67914054 2040.22241764 51.18411523 2036.14111328 51.41723633 C2034.98590683 51.48448914 2033.83070038 51.55174194 2032.64048767 51.62103271 C2031.37982986 51.69066223 2030.11917206 51.76029175 2028.8203125 51.83203125 C2027.45857496 51.90914736 2026.09684524 51.98640165 2024.73512268 52.06378174 C2020.19875344 52.31963652 2015.66191347 52.56651422 2011.125 52.8125 C2010.33374851 52.85563702 2009.54249702 52.89877403 2008.72726822 52.94321823 C1930.20598116 57.22118763 1851.61138955 60.04374201 1773 62 C1771.40633354 62.0400201 1771.40633354 62.0400201 1769.7804718 62.08084869 C1704.213918 63.72467339 1638.66549038 64.18463729 1573.08160353 64.18724871 C1570.34149244 64.18749737 1567.60138186 64.18821617 1564.8612709 64.1890831 C1518.23108843 64.20270047 1471.62173488 63.91980324 1425 63 C1423.13927343 62.96421287 1421.27854557 62.92849214 1419.41781616 62.89285278 C1409.17336465 62.69443208 1398.93029122 62.45799564 1388.6875 62.1875 C1387.93397625 62.16782291 1387.1804525 62.14814583 1386.4040947 62.12787247 C1294.93921534 59.73259359 1203.52594474 55.37302939 981.08938122 36.09999943 C905.50270139 28.19675704 829.78493948 22.50118649 657 15 C655.24462889 14.94694072 653.48925779 14.89388086 651.73388672 14.84082031 C641.95647355 14.54942698 632.17861219 14.31344153 622.39892578 14.11328125 C618.68876926 14.03706904 614.97890063 13.95284965 611.26904297 13.86328125 C530.91205515 11.94693973 450.26729521 12.01119992 369.9107666 13.90820312 C366.45090697 13.98941592 362.99100317 14.06782919 359.53105259 14.14501858 C271.41294726 16.11402791 183.29410918 19.46492355 0 32 C0 21.44 0 10.88 0 0 Z " fill="#C33B3F" transform="translate(0,0)"/>
</svg>
