<svg width="54" height="54" viewBox="0 0 54 54" fill="none" xmlns="http://www.w3.org/2000/svg">
<path d="M24.7207 1.73299C49.3555 -0.351644 62.1788 30.4537 43.2977 46.4547C29.5774 58.0813 8.13601 51.7282 2.81512 34.6635C-1.99195 19.2394 8.62055 3.09646 24.7207 1.73299ZM35.2431 18.942C34.9433 19.0096 34.7022 19.1944 34.4858 19.4017L23.2153 30.6385C22.76 30.7196 19.8979 27.2647 19.1902 26.8005C17.3603 25.6038 15.5889 27.5081 16.6143 29.3764C16.9343 29.9579 21.1171 34.1767 21.7346 34.5914C22.4873 35.094 23.213 35.3238 24.101 34.9587L37.2105 21.9258C38.4883 20.373 37.1339 18.5115 35.2408 18.942H35.2431Z" fill="#139B62"/>
</svg>
