<svg width="63" height="74" viewBox="0 0 63 74" fill="none" xmlns="http://www.w3.org/2000/svg">
<g clip-path="url(#clip0_641_94)">
<path d="M47.7142 36.1958L43.2206 4.49334C41.2322 3.89853 38.9955 3.58053 36.9117 3.72337C26.2456 4.44969 17.4755 14.735 7.34393 13.9841C5.25929 13.8305 2.46214 12.2304 1.75564 15.3059L7.66304 43.912C8.74534 46.2153 14.222 46.2214 16.395 45.9892C26.6283 44.8941 35.3885 34.7591 45.5385 35.8609C45.8662 35.8967 47.629 36.3251 47.7162 36.1953L47.7142 36.1958Z" fill="#A30B37"/>
<path d="M47.2553 0.795264C47.0234 0.827931 46.642 1.01174 46.4487 1.14826C45.6203 1.74007 45.7907 2.76698 45.8864 3.63945C46.3097 7.45203 47.0089 11.268 47.5271 15.0718C49.543 29.9053 51.4695 44.7637 53.6414 59.5823C53.8448 60.9679 53.6507 63.953 55.7681 63.7645C57.2375 63.6342 57.4662 62.4886 57.333 61.2562C57.0775 58.8968 56.6003 56.5249 56.2829 54.1674C54.351 39.8261 52.3754 25.4809 50.375 11.1408C50.0177 8.57873 49.8144 5.86671 49.3808 3.33106C49.3078 2.90322 49.2068 2.25543 49.0791 1.86466C48.8544 1.19071 47.951 0.697262 47.2594 0.794415L47.2553 0.795264Z" fill="#A30B37"/>
</g>
<defs>
<clipPath id="clip0_641_94">
<rect width="50.4536" height="64.4394" fill="white" transform="matrix(-0.979481 0.201535 0.201535 0.979481 49.418 0)"/>
</clipPath>
</defs>
</svg>
