<svg width="354" height="186" viewBox="0 0 354 186" fill="none" xmlns="http://www.w3.org/2000/svg">
<g clip-path="url(#clip0_726_127)">
<path d="M0 0V84.25C0 84.25 97.23 147.21 170.28 161.11C243.33 175.01 304.27 176.57 354 140.1V74.39C354 74.39 308.75 88.73 132.19 34.06C36.45 4.41 0 0 0 0Z" fill="url(#paint0_linear_726_127)"/>
<path d="M0 84.25V140.1C0 164.95 20.15 185.1 45 185.1H309C333.85 185.1 354 164.95 354 140.1C354 140.1 253.45 186.85 93.65 117.42C11.64 81.78 0 84.25 0 84.25Z" fill="url(#paint1_linear_726_127)"/>
</g>
<defs>
<linearGradient id="paint0_linear_726_127" x1="177" y1="-1.06" x2="177" y2="172.38" gradientUnits="userSpaceOnUse">
<stop stop-color="#7C1538"/>
<stop offset="1" stop-color="#76133B"/>
</linearGradient>
<linearGradient id="paint1_linear_726_127" x1="177" y1="87.58" x2="177" y2="186.88" gradientUnits="userSpaceOnUse">
<stop stop-color="#C41B54"/>
<stop offset="1" stop-color="#CA2C53"/>
</linearGradient>
<clipPath id="clip0_726_127">
<rect width="354" height="185.1" fill="white"/>
</clipPath>
</defs>
</svg>
