<?xml version="1.0" encoding="UTF-8"?>
<svg version="1.1" xmlns="http://www.w3.org/2000/svg" width="1025" height="138">
<path d="M0 0 C0.33 2.97 0.66 5.94 1 9 C2.41152344 8.47599609 2.41152344 8.47599609 3.8515625 7.94140625 C5.10927474 7.48149655 6.36709293 7.02187653 7.625 6.5625 C8.85476563 6.11003906 10.08453125 5.65757812 11.3515625 5.19140625 C24.71527024 0.82745458 40.7167892 2.00140519 54 6 C54.97573975 6.29003906 54.97573975 6.29003906 55.97119141 6.5859375 C68.92551802 10.58803697 68.92551802 10.58803697 72.375 16.5625 C75.30696133 23.24880206 75.18917882 30.01836419 75.1875 37.1875 C75.19177002 38.25379639 75.19604004 39.32009277 75.20043945 40.41870117 C75.17430925 47.00400431 74.6697618 53.30871488 73.6875 59.8125 C72.72778438 66.40196298 73.32313772 70.92785897 76.73828125 76.73828125 C80.73089197 83.89531408 79.73159914 93.93649534 77.875 101.625 C76.13846083 107.32019006 73.33070179 112.09770701 70 117 C69.4225 117.886875 68.845 118.77375 68.25 119.6875 C57.77463197 130.45385048 44.65052533 134.9544052 29.9375 135.3125 C17.88593661 135.10680062 6.563869 132.73029166 -4.875 129 C-5.64239502 128.7510498 -6.40979004 128.50209961 -7.20043945 128.24560547 C-10.84594191 126.99114186 -13.50578869 125.95795457 -16 123 C-21.34718255 108.3345655 -23.44097664 90.54442644 -23 75 C-18.69677317 73.53060547 -14.37702633 72.22556737 -10 71 C-12.64560495 66.05190566 -12.64560495 66.05190566 -17.19384766 63.14111328 C-19.74147797 62.64113004 -22.22768322 62.3162068 -24.8125 62.0625 C-27.844375 61.711875 -30.87625 61.36125 -34 61 C-34 71.89 -34 82.78 -34 94 C-31.69 94 -29.38 94 -27 94 C-24.02599525 102.18995153 -22.18010999 110.57151342 -20.3125 119.0625 C-19.98936435 120.51507014 -19.66579996 121.96754497 -19.34179688 123.41992188 C-18.55625399 126.94552997 -17.77651374 130.47239082 -17 134 C-35.85554408 134.02345581 -54.71108516 134.04104106 -73.56664085 134.05181217 C-82.32340358 134.05694835 -91.08015719 134.06393946 -99.83691406 134.07543945 C-107.47746367 134.0854687 -115.11800667 134.09187286 -122.75856268 134.09408849 C-126.79673623 134.09538173 -130.83489088 134.09837826 -134.87305832 134.10573006 C-167.18030409 134.16236301 -167.18030409 134.16236301 -182 133 C-182 133.66 -182 134.32 -182 135 C-182.66080566 134.96970703 -183.32161133 134.93941406 -184.00244141 134.90820312 C-214.93692141 133.44333986 -214.93692141 133.44333986 -245.86523438 134.40112305 C-246.61095703 134.45437744 -247.35667969 134.50763184 -248.125 134.5625 C-249.28578945 134.64761809 -250.4465789 134.73273619 -251.64254379 134.82043362 C-256.11956359 135.06560096 -260.50946041 134.82023216 -264.97906494 134.53443909 C-276.72499515 133.87259732 -288.44866064 133.86643182 -300.20996094 133.88647461 C-302.56756082 133.88675742 -304.92516079 133.88659691 -307.28276062 133.8860321 C-313.61815896 133.8857478 -319.95353796 133.89158472 -326.28893185 133.89860606 C-332.25865524 133.90426144 -338.22837873 133.90523284 -344.19810429 133.90625793 C-356.00560828 133.90843507 -367.81310527 133.91505848 -379.62060547 133.92456055 C-391.07600876 133.93376955 -402.53141015 133.94083323 -413.98681641 133.94506836 C-414.69545388 133.94533108 -415.40409135 133.94559381 -416.13420269 133.94586449 C-419.68998302 133.94716973 -423.24576336 133.94843339 -426.80154371 133.94967639 C-456.20103364 133.96000725 -485.60051674 133.97766414 -515 134 C-516.1449091 129.08998423 -517.28407589 124.17868481 -518.41796875 119.26611328 C-518.8044173 117.5955014 -519.19242563 115.92524953 -519.58203125 114.25537109 C-520.14214096 111.85347205 -520.6966073 109.45032931 -521.25 107.046875 C-521.51248535 105.9294693 -521.51248535 105.9294693 -521.78027344 104.78948975 C-522.55457232 101.40339269 -523 98.49603554 -523 95 C-518.38 94.67 -513.76 94.34 -509 94 C-509 77.17 -509 60.34 -509 43 C-510.98 43 -512.96 43 -515 43 C-516.28625254 37.929109 -517.56787741 32.85707958 -518.84521484 27.78393555 C-519.28046488 26.05802797 -519.71698108 24.3324392 -520.15478516 22.60717773 C-520.78360263 20.12826804 -521.40786806 17.64825013 -522.03125 15.16796875 C-522.22811401 14.39599655 -522.42497803 13.62402435 -522.62780762 12.82865906 C-523.38269301 9.8100668 -524 7.12469987 -524 4 C-506.09434528 3.97608993 -488.18869589 3.95874811 -470.2830286 3.94818783 C-461.95943208 3.94314297 -453.63584583 3.93631428 -445.31225586 3.92456055 C-398.19916005 3.85935554 -351.10673375 4.21260595 -304 5 C-303.18986882 6.73505139 -302.3848801 8.47250442 -301.58203125 10.2109375 C-301.1331958 11.17821777 -300.68436035 12.14549805 -300.22192383 13.14208984 C-293.92588365 27.86765355 -296.44415127 47.57460238 -299 63 C-299.33 63.66 -299.66 64.32 -300 65 C-306.435 64.505 -306.435 64.505 -313 64 C-313 66.97 -313 69.94 -313 73 C-311.659375 73.12375 -310.31875 73.2475 -308.9375 73.375 C-304.75890694 73.83120715 -300.99893799 74.72374319 -297 76 C-296.89816406 75.35264893 -296.79632812 74.70529785 -296.69140625 74.03833008 C-295.7763734 70.0172906 -294.36819506 66.24974222 -292.9375 62.38671875 C-292.47617172 61.12798698 -292.47617172 61.12798698 -292.00552368 59.84382629 C-291.0074022 57.12366707 -290.00391417 54.40552612 -289 51.6875 C-288.31539156 49.82689682 -287.63098448 47.96621954 -286.94677734 46.10546875 C-285.27250769 41.55615742 -283.59315042 37.008748 -281.91101074 32.46234131 C-281.08216534 30.22208202 -280.25431403 27.9814584 -279.42675781 25.74072266 C-278.1645652 22.32525883 -276.89622691 18.91211308 -275.625 15.5 C-275.26277344 14.52377686 -274.90054688 13.54755371 -274.52734375 12.54174805 C-274.20121094 11.67203369 -273.87507812 10.80231934 -273.5390625 9.90625 C-273.12454834 8.79733398 -273.12454834 8.79733398 -272.70166016 7.66601562 C-272 6 -272 6 -271 5 C-269.48071962 4.92820036 -267.95832518 4.91607993 -266.4375 4.9375 C-265.61121094 4.94652344 -264.78492188 4.95554687 -263.93359375 4.96484375 C-263.29550781 4.97644531 -262.65742187 4.98804688 -262 5 C-261.67 4.01 -261.34 3.02 -261 2 C-260.34 2.33 -259.68 2.66 -259 3 C-259 3.66 -259 4.32 -259 5 C-251.74 5 -244.48 5 -237 5 C-231.35979865 16.81886852 -226.50107956 28.9134454 -221.625 41.0625 C-220.80498117 43.0984256 -219.98467027 45.13423359 -219.1640625 47.16992188 C-214.08741133 59.77115305 -209.04149581 72.38467083 -204 85 C-203.67 71.14 -203.34 57.28 -203 43 C-204.98 43 -206.96 43 -209 43 C-210.28466174 37.7679645 -211.56633478 32.53520955 -212.84521484 27.30175781 C-213.28091187 25.52063097 -213.71743226 23.73970534 -214.15478516 21.95898438 C-214.78242898 19.40286575 -215.40713099 16.84604373 -216.03125 14.2890625 C-216.32654602 13.09055161 -216.32654602 13.09055161 -216.62780762 11.86782837 C-218 6.22774341 -218 6.22774341 -218 4 C-209.27992127 3.90655696 -200.56001974 3.83586386 -191.8395462 3.79275131 C-187.78851911 3.7720401 -183.73783913 3.74403173 -179.68701172 3.69824219 C-175.76417219 3.65418629 -171.84166254 3.63073981 -167.91859436 3.62049103 C-166.4357434 3.61320504 -164.95290666 3.59898428 -163.47019958 3.57707977 C-148.28535733 3.36205215 -130.24514941 5.31328243 -118.671875 16.1875 C-118.12015625 16.785625 -117.5684375 17.38375 -117 18 C-116.81824219 17.443125 -116.63648438 16.88625 -116.44921875 16.3125 C-114.75137815 11.15803009 -112.93577765 6.06989385 -111 1 C-109.71416016 1.19916016 -109.71416016 1.19916016 -108.40234375 1.40234375 C-107.25894531 1.57894531 -106.11554688 1.75554688 -104.9375 1.9375 C-103.24947266 2.19853516 -103.24947266 2.19853516 -101.52734375 2.46484375 C-100.36332031 2.64144531 -99.19929688 2.81804687 -98 3 C-96.90894455 3.17238693 -95.8178891 3.34477386 -94.69377136 3.52238464 C-91.21042326 3.97279166 -87.88182069 4.14599967 -84.37231445 4.17700195 C-82.45785271 4.19625481 -82.45785271 4.19625481 -80.50471497 4.21589661 C-79.12424112 4.22407439 -77.74376274 4.23151611 -76.36328125 4.23828125 C-75.3015825 4.24439454 -75.3015825 4.24439454 -74.21843529 4.25063133 C-70.46064939 4.27143048 -66.70289918 4.28575001 -62.94506836 4.29516602 C-59.87975796 4.30396139 -56.81491046 4.32468878 -53.74975586 4.35668945 C-30.4767373 4.61876196 -30.4767373 4.61876196 -7.55932617 0.86401367 C-4 0 -4 0 0 0 Z M-458 43 C-458 44.32 -458 45.64 -458 47 C-453.71 47 -449.42 47 -445 47 C-445 45.68 -445 44.36 -445 43 C-449.29 43 -453.58 43 -458 43 Z M-94.3984375 61.83203125 C-103.7539993 61.39976633 -103.7539993 61.39976633 -111.73046875 65.41015625 C-113.46617609 68.21911546 -114.78263468 70.93637214 -116 74 C-116.66 74.99 -117.32 75.98 -118 77 C-116.39642346 79.25042262 -114.79216064 81.50035059 -113.1875 83.75 C-112.73568359 84.38421875 -112.28386719 85.0184375 -111.81835938 85.671875 C-110.93767243 86.90612239 -110.04972821 88.13522868 -109.15405273 89.35864258 C-108 91 -108 91 -106.671875 93.43359375 C-104.36992972 95.59032286 -102.30042355 95.43728169 -99.24414062 95.40039062 C-98.52419922 95.37138672 -97.80425781 95.34238281 -97.0625 95.3125 C-96.34642578 95.30283203 -95.63035156 95.29316406 -94.89257812 95.28320312 C-91.3916212 95.20857661 -88.41495432 94.85373858 -85 94 C-85 83.44 -85 72.88 -85 62 C-88.15496184 62 -91.25330625 61.95396535 -94.3984375 61.83203125 Z M-458 89 C-458 90.65 -458 92.3 -458 94 C-456.20909747 94.19466332 -454.41723495 94.38051213 -452.625 94.5625 C-451.62726563 94.66691406 -450.62953125 94.77132812 -449.6015625 94.87890625 C-447.015963 95.21144708 -447.015963 95.21144708 -445 94 C-445 92.35 -445 90.7 -445 89 C-449.29 89 -453.58 89 -458 89 Z " fill="#FEFDFC" transform="translate(946,1)"/>
<path d="M0 0 C3.875 1.75 3.875 1.75 5 4 C16.11856481 4.36520833 26.96485916 3.23223906 38 2 C38.01417969 3.00160156 38.02835937 4.00320313 38.04296875 5.03515625 C38.27292249 12.6369879 38.52408514 18.24326899 44 24 C43.69255859 22.46279297 43.69255859 22.46279297 43.37890625 20.89453125 C42.25260417 15.26302083 41.12630208 9.63151042 40 4 C62.44 4 84.88 4 108 4 C115 34 115 34 116 43 C111.05 43 106.1 43 101 43 C101 74.02 101 105.04 101 137 C91.32258065 135.92473118 91.32258065 135.92473118 87.375 134.875 C82.78132675 133.81602237 79.13385765 134.39775474 74.5 135.125 C67.89248627 135.65466042 67.89248627 135.65466042 64.2734375 133 C62.10673163 130.40277603 60.19606121 127.80218092 58.34228516 124.98144531 C56.30442005 121.97320355 54.05751596 119.13553653 51.82666016 116.26904297 C48.16186189 111.55542062 44.58021933 106.77802057 41 102 C41.62306951 105.00041238 42.2484011 108.00032443 42.875 111 C43.13603516 112.25876953 43.13603516 112.25876953 43.40234375 113.54296875 C44.22923915 117.49369124 45.09349702 121.4118592 46.1328125 125.3125 C47 129 47 129 47 134 C-5.14 134 -57.28 134 -111 134 C-113.48785193 124.67055528 -115.85160693 115.50073726 -117.75 106.0625 C-117.97042969 104.98548828 -118.19085938 103.90847656 -118.41796875 102.79882812 C-118.94927929 100.20002658 -119.47524206 97.60013258 -120 95 C-115.05 94.67 -110.1 94.34 -105 94 C-105.33 89.38 -105.66 84.76 -106 80 C-107.093125 80.7425 -108.18625 81.485 -109.3125 82.25 C-117.74101675 87.47330615 -126.14468403 89.61874987 -136 90 C-136 91.32 -136 92.64 -136 94 C-132.7 94 -129.4 94 -126 94 C-124.71221521 99.0521959 -123.43064491 104.10591221 -122.15478516 109.16113281 C-121.7199639 110.88031423 -121.28345341 112.59906933 -120.84521484 114.31738281 C-120.21526653 116.78860862 -119.59142711 119.26130845 -118.96875 121.734375 C-118.67345398 122.88459137 -118.67345398 122.88459137 -118.37219238 124.05804443 C-117.5086877 127.51061532 -117 130.41651031 -117 134 C-142.08 134 -167.16 134 -193 134 C-194.32 128.72 -195.64 123.44 -197 118 C-198.2375 119.03125 -199.475 120.0625 -200.75 121.125 C-216.15786888 133.05523077 -234.930081 136.81069146 -254.05761719 134.78173828 C-272.19168702 132.21882578 -287.21650648 124.03622022 -299 110 C-309.55409049 95.13328978 -313.30733997 77.8926127 -310.68652344 59.84082031 C-307.49800835 42.18574318 -298.4853736 26.78929328 -284 16 C-267.20481662 4.45152925 -247.82280068 0.15646459 -227.7109375 3.65234375 C-217.34751883 5.82784213 -207.80890373 10.12739751 -199 16 C-199.99 12.04 -200.98 8.08 -202 4 C-193.37568559 3.93179734 -184.7515864 3.87694056 -176.12707329 3.84456348 C-172.12090789 3.82901185 -168.11493905 3.80796981 -164.10888672 3.77368164 C-160.2314579 3.74070802 -156.35421625 3.72306839 -152.47665787 3.71536827 C-151.00892319 3.70989201 -149.54119691 3.69920194 -148.07354355 3.68280983 C-138.29839718 3.57813097 -129.47670682 4.54303947 -120 7 C-120 6.01 -120 5.02 -120 4 C-80.4 4 -40.8 4 0 4 C0 2.68 0 1.36 0 0 Z M-255 50 C-259.73724801 58.27771757 -259.17502713 69.87947391 -256.8203125 78.8671875 C-254.74743961 84.25665701 -251.82576437 88.69021251 -247.125 92.0625 C-243.23989237 93.22803229 -239.98597193 94.09574527 -236 93 C-231.64099802 89.83156244 -229.23406123 85.51507051 -228.24609375 80.21875 C-227.03397132 69.29040806 -228.14683467 57.83094133 -234.546875 48.55859375 C-237.62598258 45.25600256 -241.15954284 44.41410286 -245.5 43.4375 C-249.67013698 44.37578082 -252.28521301 46.76906832 -255 50 Z M-23 63 C-23 66.3 -23 69.6 -23 73 C-18.05 73.99 -18.05 73.99 -13 75 C-13 71.7 -13 68.4 -13 65 C-16.3 64.34 -19.6 63.68 -23 63 Z M32 91 C32 91.99 32 92.98 32 94 C32.66 94 33.32 94 34 94 C33.67 93.01 33.34 92.02 33 91 C32.67 91 32.34 91 32 91 Z " fill="#FEFCFC" transform="translate(311,1)"/>
<path d="M0 0 C0.88292725 0.00563965 1.76585449 0.0112793 2.67553711 0.01708984 C15.78615131 0.26083987 27.7789064 4.5495505 37.56640625 13.5625 C47.95877517 24.78125007 51.74005813 36.97991044 51.46484375 52.03515625 C50.80538763 66.60552763 44.16560066 78.18199007 33.83203125 88.05078125 C21.13657316 98.90849208 6.59692681 101.20641402 -9.68505859 100.49169922 C-19.00736229 99.70646042 -27.26415623 95.61638049 -34.8125 90.3125 C-35.44800781 89.87292969 -36.08351563 89.43335937 -36.73828125 88.98046875 C-45.28532485 82.40436204 -50.79406653 71.76726021 -52.8125 61.3125 C-54.21674869 46.28237015 -52.02972706 32.79761727 -42.69921875 20.53515625 C-31.23220532 7.36492493 -17.61973353 -0.11779022 0 0 Z M-12.8125 31.3125 C-17.54974801 39.59021757 -16.98752713 51.19197391 -14.6328125 60.1796875 C-12.55993961 65.56915701 -9.63826437 70.00271251 -4.9375 73.375 C-1.05239237 74.54053229 2.20152807 75.40824527 6.1875 74.3125 C10.54650198 71.14406244 12.95343877 66.82757051 13.94140625 61.53125 C15.15352868 50.60290806 14.04066533 39.14344133 7.640625 29.87109375 C4.56151742 26.56850256 1.02795716 25.72660286 -3.3125 24.75 C-7.48263698 25.68828082 -10.09771301 28.08156832 -12.8125 31.3125 Z " fill="#A40F3A" transform="translate(68.8125,19.6875)"/>
<path d="M0 0 C6.67110916 -0.05096287 13.34216758 -0.08584348 20.01342773 -0.10986328 C22.28004838 -0.11988328 24.54665623 -0.13350297 26.81323242 -0.15087891 C30.0825518 -0.17530362 33.35169936 -0.18652343 36.62109375 -0.1953125 C38.12632851 -0.21079636 38.12632851 -0.21079636 39.66197205 -0.22659302 C50.28810259 -0.22826455 60.05719082 1.40809955 68.05078125 8.9296875 C74.09816615 15.56553429 75.48040662 20.75645521 75.30859375 29.7109375 C74.60553402 37.20430834 71.36227646 42.20890565 66.07421875 47.39453125 C63.21609242 49.60675333 60.16573444 51.2563876 57 53 C58.5820879 55.167585 60.16553011 57.33415669 61.75 59.5 C62.23573486 60.16475342 62.72146973 60.82950684 63.22192383 61.5144043 C65.9189212 65.19564454 68.63958725 68.85607602 71.40234375 72.48828125 C71.95116211 73.21144531 72.49998047 73.93460937 73.06542969 74.6796875 C74.13627249 76.08770718 75.21107135 77.49272798 76.29003906 78.89453125 C80 83.77877976 80 83.77877976 80 86 C83.49304985 87.42528467 83.49304985 87.42528467 87.078125 88.58984375 C88.15320313 88.91662109 88.15320313 88.91662109 89.25 89.25 C89.93578125 89.44078125 90.6215625 89.6315625 91.328125 89.828125 C93 91 93 91 93.60449219 94.07324219 C93.73500977 95.03907227 93.86552734 96.00490234 94 97 C84.39087129 98.8087304 74.40205295 100.2263887 65 97 C57.03183954 91.30535703 52.44233038 81.03807764 47.93896484 72.61132812 C46.0454315 69.07273036 44.12088082 65.58042601 42.05078125 62.140625 C41.48657471 61.17157227 40.92236816 60.20251953 40.34106445 59.20410156 C37.43377147 56.02462041 37.43377147 56.02462041 29 56 C29.33 66.56 29.66 77.12 30 88 C32.97 88.99 35.94 89.98 39 91 C39 92.98 39 94.96 39 97 C26.46 97 13.92 97 1 97 C0.67 94.69 0.34 92.38 0 90 C4.455 89.01 4.455 89.01 9 88 C9.02312392 77.84733849 9.04091534 67.6946832 9.05181217 57.54200077 C9.05704089 52.82820267 9.06413834 48.11442253 9.07543945 43.40063477 C9.08626873 38.85544596 9.09227692 34.31027448 9.09487724 29.76507378 C9.09673142 28.02705042 9.10035189 26.28902806 9.10573006 24.55101204 C9.11294103 22.12521405 9.11399092 19.69948854 9.11352539 17.27368164 C9.11712067 16.54791931 9.12071594 15.82215698 9.12442017 15.07440186 C9.408186 11.75400112 9.408186 11.75400112 8 9 C5.67182036 8.63239269 3.3381615 8.29758419 1 8 C0.67 5.36 0.34 2.72 0 0 Z " fill="#D95017" transform="translate(749,21)"/>
<path d="M0 0 C12.87 0 25.74 0 39 0 C39.495 3.465 39.495 3.465 40 7 C37.03 7.99 34.06 8.98 31 10 C30.67 20.89 30.34 31.78 30 43 C44.85 43 59.7 43 75 43 C74.7834375 34.8634375 74.7834375 34.8634375 74.5625 26.5625 C74.49784546 23.99190796 74.49784546 23.99190796 74.43188477 21.36938477 C74.39377609 20.01838104 74.35530819 18.66738737 74.31640625 17.31640625 C74.2916925 16.25528625 74.2916925 16.25528625 74.26647949 15.17272949 C74.45238481 11.79781012 74.45238481 11.79781012 73 9 C70.67182036 8.63239269 68.3381615 8.29758419 66 8 C64.74335022 5.09399739 64 3.20395416 64 0 C76.87 0 89.74 0 103 0 C103.495 3.465 103.495 3.465 104 7 C101.03 7.99 98.06 8.98 95 10 C94.97687608 20.15266151 94.95908466 30.3053168 94.94818783 40.45799923 C94.94295911 45.17179733 94.93586166 49.88557747 94.92456055 54.59936523 C94.91373127 59.14455404 94.90772308 63.68972552 94.90512276 68.23492622 C94.90326858 69.97294958 94.89964811 71.71097194 94.89426994 73.44898796 C94.88705897 75.87478595 94.88600908 78.30051146 94.88647461 80.72631836 C94.8810817 81.81496185 94.8810817 81.81496185 94.87557983 82.92559814 C94.591814 86.24599888 94.591814 86.24599888 96 89 C98.32817964 89.36760731 100.6618385 89.70241581 103 90 C103.495 93.465 103.495 93.465 104 97 C91.46 97 78.92 97 66 97 C65.505 93.535 65.505 93.535 65 90 C69.455 89.01 69.455 89.01 74 88 C74.33 76.45 74.66 64.9 75 53 C60.15 53 45.3 53 30 53 C30.144375 58.754375 30.28875 64.50875 30.4375 70.4375 C30.48060303 72.25564209 30.52370605 74.07378418 30.56811523 75.94702148 C30.60622323 77.38005586 30.64469108 78.81308073 30.68359375 80.24609375 C30.70006958 80.99669067 30.71654541 81.7472876 30.73352051 82.52062988 C30.5183588 86.05692641 30.5183588 86.05692641 32 89 C34.32817964 89.36760731 36.6618385 89.70241581 39 90 C39.495 93.465 39.495 93.465 40 97 C27.46 97 14.92 97 2 97 C1.67 94.69 1.34 92.38 1 90 C5.455 89.01 5.455 89.01 10 88 C10.02312392 77.84733849 10.04091534 67.6946832 10.05181217 57.54200077 C10.05704089 52.82820267 10.06413834 48.11442253 10.07543945 43.40063477 C10.08626873 38.85544596 10.09227692 34.31027448 10.09487724 29.76507378 C10.09673142 28.02705042 10.10035189 26.28902806 10.10573006 24.55101204 C10.11294103 22.12521405 10.11399092 19.69948854 10.11352539 17.27368164 C10.11712067 16.54791931 10.12071594 15.82215698 10.12442017 15.07440186 C10.408186 11.75400112 10.408186 11.75400112 9 9 C6.67182036 8.63239269 4.3381615 8.29758419 2 8 C1.34 5.36 0.68 2.72 0 0 Z " fill="#B3212F" transform="translate(442,21)"/>
<path d="M0 0 C10.56 0 21.12 0 32 0 C32.66 1.65 33.32 3.3 34 5 C35.39242503 7.16065953 36.80377573 9.23711454 38.3125 11.3125 C38.74691406 11.91570068 39.18132812 12.51890137 39.62890625 13.14038086 C44.13899435 19.32354061 48.98695543 25.22137116 53.84375 31.1328125 C58.36927673 36.65101787 62.67426443 42.32247207 67 48 C71.29 53.61 75.58 59.22 80 65 C80 46.85 80 28.7 80 10 C75.545 9.01 75.545 9.01 71 8 C70.505 4.04 70.505 4.04 70 0 C81.22 0 92.44 0 104 0 C106 5 106 5 106 8 C105.28972656 8.13277344 104.57945312 8.26554687 103.84765625 8.40234375 C102.46900391 8.66724609 102.46900391 8.66724609 101.0625 8.9375 C99.68771484 9.19853516 99.68771484 9.19853516 98.28515625 9.46484375 C96.04710156 9.77714988 96.04710156 9.77714988 95 11 C94.87485589 13.70753726 94.81392872 16.39082104 94.79467773 19.09985352 C94.78477814 19.94856018 94.77487854 20.79726685 94.76467896 21.67169189 C94.73296753 24.49073449 94.70826861 27.30979398 94.68359375 30.12890625 C94.66303254 32.07804311 94.6420363 34.02717544 94.62062073 35.9763031 C94.56531402 41.11701793 94.5159428 46.25777357 94.46777344 51.39855957 C94.41762103 56.64009247 94.36190237 61.8815658 94.30664062 67.12304688 C94.19895394 77.41531375 94.09753247 87.70763225 94 98 C92.07548429 97.91647374 90.15191231 97.81100879 88.22900391 97.69628906 C87.15776276 97.63991272 86.08652161 97.58353638 84.9828186 97.52545166 C80.880513 96.80279179 79.28710081 95.10814345 76.83154297 91.88427734 C76.35088379 91.17996582 75.87022461 90.4756543 75.375 89.75 C74.83633301 89.02635254 74.29766602 88.30270508 73.74267578 87.55712891 C72.64978572 86.08494742 71.5712204 84.60201508 70.5078125 83.10839844 C68.76326819 80.6689741 66.93959141 78.30234967 65.09448242 75.9387207 C63.8710662 74.36995576 62.66405333 72.78844466 61.45703125 71.20703125 C58.8559742 67.80145877 56.21308007 64.42960435 53.5625 61.0625 C52.87583252 60.19020752 52.87583252 60.19020752 52.17529297 59.30029297 C51.24740379 58.1220986 50.31934346 56.94403901 49.39111328 55.76611328 C47.57438867 53.45965736 45.76048826 51.15099022 43.94691467 48.84205627 C42.61261799 47.14337313 41.27815579 45.44482024 39.94360352 43.74633789 C39.46589005 43.13834854 38.98817657 42.53035919 38.49598694 41.90394592 C38.00231125 41.27564377 37.50863556 40.64734161 37 40 C36.01887886 38.75130314 35.03775907 37.50260523 34.05664062 36.25390625 C33.57807617 35.64482422 33.09951172 35.03574219 32.60644531 34.40820312 C30.40429688 31.60546875 28.20214844 28.80273437 26 26 C25.97685524 33.91886714 25.959074 41.8377202 25.94818783 49.75661278 C25.94296368 53.43345711 25.9358745 57.11027834 25.92456055 60.78710938 C25.91371507 64.3337896 25.90771963 67.88044757 25.90512276 71.4271431 C25.90327151 72.78196183 25.89965662 74.13677931 25.89426994 75.49158859 C25.88703762 77.38549365 25.88659176 79.27942098 25.88647461 81.17333984 C25.88314369 82.79216568 25.88314369 82.79216568 25.87974548 84.44369507 C25.82676584 86.99077346 25.82676584 86.99077346 27 89 C28.89533342 89.46523063 28.89533342 89.46523063 31.0625 89.625 C32.361875 89.74875 33.66125 89.8725 35 90 C35.495 93.465 35.495 93.465 36 97 C24.45 97 12.9 97 1 97 C0.67 94.69 0.34 92.38 0 90 C0.71027344 89.86722656 1.42054688 89.73445313 2.15234375 89.59765625 C3.07144531 89.42105469 3.99054688 89.24445313 4.9375 89.0625 C6.31228516 88.80146484 6.31228516 88.80146484 7.71484375 88.53515625 C9.95289844 88.22285012 9.95289844 88.22285012 11 87 C11.09498646 84.56603981 11.12558417 82.16057048 11.11352539 79.72631836 C11.11367142 78.96539383 11.11381744 78.2044693 11.1139679 77.42048645 C11.11326862 74.89357702 11.10547555 72.36674038 11.09765625 69.83984375 C11.09579212 68.0924941 11.0943682 66.34514393 11.09336853 64.59779358 C11.08954293 59.98968066 11.07971229 55.38159905 11.06866455 50.77349854 C11.05845134 46.07491479 11.0538711 41.37632601 11.04882812 36.67773438 C11.03809005 27.45180913 11.02101313 18.22590716 11 9 C8.03 8.67 5.06 8.34 2 8 C0.74335022 5.09399739 0 3.20395416 0 0 Z " fill="#A50F39" transform="translate(302,21)"/>
<path d="M0 0 C1.79244141 0.01740234 1.79244141 0.01740234 3.62109375 0.03515625 C5.41740234 0.04869141 5.41740234 0.04869141 7.25 0.0625 C8.17683594 0.07410156 9.10367188 0.08570312 10.05859375 0.09765625 C10.26331802 0.60653381 10.4680423 1.11541138 10.67897034 1.63970947 C16.78048247 16.80251424 22.90602611 31.95549372 29.05859375 47.09765625 C29.64223694 48.53449768 29.64223694 48.53449768 30.2376709 50.00036621 C32.32747787 55.14090707 34.42708466 60.27722671 36.54293823 65.40710449 C37.17467135 66.94180759 37.80355288 68.47768781 38.42947388 70.01477051 C39.29659336 72.1421332 40.17415186 74.26488071 41.0546875 76.38671875 C41.78449829 78.16103271 41.78449829 78.16103271 42.52905273 79.97119141 C44.07335855 83.12783631 45.6459206 85.54615575 48.05859375 88.09765625 C51.19723079 88.98359623 51.19723079 88.98359623 54.05859375 89.09765625 C54.55359375 92.56265625 54.55359375 92.56265625 55.05859375 96.09765625 C41.52859375 96.09765625 27.99859375 96.09765625 14.05859375 96.09765625 C13.56359375 92.63265625 13.56359375 92.63265625 13.05859375 89.09765625 C17.51359375 88.60265625 17.51359375 88.60265625 22.05859375 88.09765625 C22.67343471 82.16059818 20.52413813 77.94766986 18.05859375 72.72265625 C16.73859375 69.87640625 15.41859375 67.03015625 14.05859375 64.09765625 C4.15859375 64.09765625 -5.74140625 64.09765625 -15.94140625 64.09765625 C-21.27774265 76.56172004 -21.27774265 76.56172004 -20.94140625 84.09765625 C-18.14961162 87.32566879 -15.74531479 88.31391234 -11.62890625 88.84765625 C-10.41203125 88.93015625 -9.19515625 89.01265625 -7.94140625 89.09765625 C-7.44640625 93.05765625 -7.44640625 93.05765625 -6.94140625 97.09765625 C-19.81140625 97.09765625 -32.68140625 97.09765625 -45.94140625 97.09765625 C-45.94140625 94.45765625 -45.94140625 91.81765625 -45.94140625 89.09765625 C-45.05388672 88.80375 -45.05388672 88.80375 -44.1484375 88.50390625 C-43.35824219 88.20484375 -42.56804688 87.90578125 -41.75390625 87.59765625 C-40.97660156 87.31921875 -40.19929687 87.04078125 -39.3984375 86.75390625 C-33.17110439 82.55614911 -30.65482712 74.41049424 -28.19921875 67.61328125 C-27.70202835 66.26976593 -27.70202835 66.26976593 -27.1947937 64.89910889 C-26.14358764 62.05163814 -25.1049862 59.19975285 -24.06640625 56.34765625 C-23.37838994 54.48148095 -22.68959327 52.61559316 -22 50.75 C-18.32710337 40.78425221 -14.74705385 30.78825889 -11.26956177 20.75262451 C-4.11842643 0.13673395 -4.11842643 0.13673395 0 0 Z " fill="#CD4221" transform="translate(688.94140625,21.90234375)"/>
<path d="M0 0 C25.08 0 50.16 0 76 0 C76.84941019 3.39764076 77.11761783 5.7697327 77.09765625 9.203125 C77.09282227 10.67265625 77.09282227 10.67265625 77.08789062 12.171875 C77.07532227 13.69554687 77.07532227 13.69554687 77.0625 15.25 C77.05798828 16.28125 77.05347656 17.3125 77.04882812 18.375 C77.03706088 20.91672573 77.02062011 23.45833319 77 26 C74.69 25.67 72.38 25.34 70 25 C69.82984375 24.33613281 69.6596875 23.67226563 69.484375 22.98828125 C68.07616579 17.85730622 66.86062428 13.86062428 63 10 C60.05584231 8.52792115 57.03733072 8.7618368 53.8046875 8.68359375 C52.51030762 8.64548584 51.21592773 8.60737793 49.88232422 8.56811523 C48.22990723 8.52501221 46.57749023 8.48190918 44.875 8.4375 C39.63625 8.293125 34.3975 8.14875 29 8 C29 19.22 29 30.44 29 42 C36.59 41.67 44.18 41.34 52 41 C52.144375 39.040625 52.28875 37.08125 52.4375 35.0625 C52.875 29.125 52.875 29.125 54 28 C56.31 28 58.62 28 61 28 C61 39.55 61 51.1 61 63 C56 65 56 65 53 65 C52.505 59.06 52.505 59.06 52 53 C44.41 52.67 36.82 52.34 29 52 C29.05103569 56.50389934 29.11392329 61.00432893 29.20751953 65.50708008 C29.23573878 67.03854178 29.25694869 68.57014939 29.27099609 70.10180664 C29.29241426 72.30430849 29.33905138 74.50505459 29.390625 76.70703125 C29.39185364 77.39150833 29.39308228 78.07598541 29.39434814 78.78120422 C29.48884603 81.85038248 29.6382328 83.59136962 31.70751953 85.92871094 C36.12537766 87.99320098 40.83376265 87.46936434 45.625 87.4375 C46.66785156 87.45748047 47.71070313 87.47746094 48.78515625 87.49804688 C56.4285869 87.49327569 63.96419373 86.5488685 69.91015625 81.3203125 C73.34793689 77.64514036 75.27691196 73.69062856 77 69 C79.64 69 82.28 69 85 69 C84.77485781 75.30398123 83.26288135 80.58031314 81.0625 86.4375 C80.66490479 87.50291016 80.66490479 87.50291016 80.25927734 88.58984375 C79.11940388 91.53327864 78.2558306 93.7441694 76 96 C73.59073766 96.18765773 71.29751603 96.25200981 68.88818359 96.22705078 C67.79046883 96.22748886 67.79046883 96.22748886 66.670578 96.22793579 C64.24641146 96.22654001 61.82255049 96.2109674 59.3984375 96.1953125 C57.71977913 96.19158325 56.04111859 96.18873586 54.36245728 96.18673706 C49.94008393 96.17909369 45.51784155 96.15943922 41.09552002 96.1373291 C36.58453137 96.11688579 32.0735216 96.10773859 27.5625 96.09765625 C18.70827573 96.07619394 9.85414875 96.04204955 1 96 C0.67 93.69 0.34 91.38 0 89 C4.455 88.01 4.455 88.01 9 87 C9.02312392 76.84733849 9.04091534 66.6946832 9.05181217 56.54200077 C9.05704089 51.82820267 9.06413834 47.11442253 9.07543945 42.40063477 C9.08626873 37.85544596 9.09227692 33.31027448 9.09487724 28.76507378 C9.09673142 27.02705042 9.10035189 25.28902806 9.10573006 23.55101204 C9.11294103 21.12521405 9.11399092 18.69948854 9.11352539 16.27368164 C9.11712067 15.54791931 9.12071594 14.82215698 9.12442017 14.07440186 C9.408186 10.75400112 9.408186 10.75400112 8 8 C5.67182036 7.63239269 3.3381615 7.29758419 1 7 C0.67 4.69 0.34 2.38 0 0 Z " fill="#C03229" transform="translate(556,22)"/>
<path d="M0 0 C24.75 0 49.5 0 75 0 C76.30475618 2.60951236 76.11301572 4.52701285 76.09765625 7.4453125 C76.09282227 9.05986328 76.09282227 9.05986328 76.08789062 10.70703125 C76.07532227 12.39892578 76.07532227 12.39892578 76.0625 14.125 C76.05798828 15.26066406 76.05347656 16.39632812 76.04882812 17.56640625 C76.03701615 20.37765638 76.02054507 23.1888023 76 26 C74.02 26 72.04 26 70 26 C69.82984375 25.41992188 69.6596875 24.83984375 69.484375 24.2421875 C67.55587891 18.025865 65.61745599 12.74497066 60 9 C56.70229658 8.62967783 56.70229658 8.62967783 52.92578125 8.5859375 C51.67450439 8.55032715 50.42322754 8.5147168 49.1340332 8.47802734 C47.54292725 8.44402832 45.95182129 8.4100293 44.3125 8.375 C39.259375 8.25125 34.20625 8.1275 29 8 C29 19.22 29 30.44 29 42 C36.59 42 44.18 42 52 42 C52.144375 39.875625 52.28875 37.75125 52.4375 35.5625 C52.875 29.125 52.875 29.125 54 28 C55.99958364 27.95919217 58.00045254 27.95745644 60 28 C60.02465098 32.96622349 60.04283649 37.93241166 60.05493164 42.89868164 C60.0599719 44.58944316 60.06680405 46.28020029 60.07543945 47.97094727 C60.08751857 50.39600707 60.09323123 52.82100944 60.09765625 55.24609375 C60.10281754 56.00651474 60.10797882 56.76693573 60.11329651 57.55039978 C60.11349238 59.3673257 60.06197277 61.18413127 60 63 C59 64 59 64 55.9375 64.0625 C54.968125 64.041875 53.99875 64.02125 53 64 C52.67 60.7 52.34 57.4 52 54 C44.41 53.67 36.82 53.34 29 53 C29.07391631 57.5216392 29.15665473 62.04126699 29.26245117 66.56201172 C29.2957373 68.10031779 29.32375778 69.63874707 29.34643555 71.17724609 C29.37991558 73.38692818 29.4322231 75.59547735 29.48828125 77.8046875 C29.49467117 78.49432587 29.5010611 79.18396423 29.50764465 79.89450073 C29.54025714 82.04685389 29.54025714 82.04685389 30 85 C34.58802244 88.05868163 39.16358079 87.36852259 44.5625 87.375 C46.13354492 87.41173828 46.13354492 87.41173828 47.73632812 87.44921875 C55.85650511 87.47949909 62.93580976 86.26456907 69.40234375 81.0703125 C69.90894531 80.42835937 70.41554688 79.78640625 70.9375 79.125 C71.4840625 78.43664062 72.030625 77.74828125 72.59375 77.0390625 C74.38701555 74.43882746 75.76511857 71.90560336 77 69 C79.31 69 81.62 69 84 69 C83.68684782 74.94989141 82.4488301 80.23234745 80.5625 85.875 C80.34505127 86.52927979 80.12760254 87.18355957 79.90356445 87.85766602 C78.85660838 90.89466486 77.79378772 93.30931842 76 96 C73.54534151 96.28679046 71.3435516 96.37873005 68.88818359 96.34057617 C68.15637375 96.34101425 67.4245639 96.34145233 66.670578 96.34190369 C64.24626185 96.33980989 61.82263316 96.3164519 59.3984375 96.29296875 C57.71978127 96.28737488 56.04112015 96.28310379 54.36245728 96.28010559 C49.94000778 96.26864033 45.51785294 96.23915891 41.09552002 96.20599365 C36.5845539 96.17532884 32.07354026 96.16160795 27.5625 96.14648438 C18.70820373 96.11429065 9.85412635 96.06307417 1 96 C-0.4606285 93.35261084 -1 92.10551666 -1 89 C-0.36191406 88.86722656 0.27617187 88.73445313 0.93359375 88.59765625 C2.17302734 88.33275391 2.17302734 88.33275391 3.4375 88.0625 C4.67306641 87.80146484 4.67306641 87.80146484 5.93359375 87.53515625 C7.97661204 87.19247006 7.97661204 87.19247006 9 86 C9.10027795 83.60190851 9.13618676 81.23260502 9.12939453 78.83398438 C9.13114685 78.08441971 9.13289917 77.33485504 9.13470459 76.56257629 C9.1391232 74.07294431 9.1361851 71.58338277 9.1328125 69.09375 C9.13348554 67.37121568 9.13445556 65.64868145 9.13571167 63.92614746 C9.13718865 60.31127012 9.13503407 56.69641745 9.13037109 53.08154297 C9.1246738 48.43733507 9.1279528 43.79318496 9.13394356 39.14897919 C9.13754916 35.59063274 9.13641059 32.0323001 9.13381577 28.47395325 C9.13314649 26.76105238 9.13397493 25.04815028 9.13629532 23.33525085 C9.13882183 20.94547178 9.1349813 18.55578759 9.12939453 16.16601562 C9.13141876 15.45117508 9.13344299 14.73633453 9.13552856 13.99983215 C9.40403866 10.71827682 9.40403866 10.71827682 8 8 C6.845 7.835 5.69 7.67 4.5 7.5 C1 7 1 7 0 6 C0 4.02 0 2.04 0 0 Z " fill="#A40F3A" transform="translate(212,22)"/>
<path d="M0 0 C2.23413013 3.35119519 2.23847762 4.4177755 2.1953125 8.32421875 C2.18886719 9.35224609 2.18242188 10.38027344 2.17578125 11.43945312 C2.15064453 13.04723633 2.15064453 13.04723633 2.125 14.6875 C2.11597656 15.77095703 2.10695313 16.85441406 2.09765625 17.97070312 C2.0740734 20.6473571 2.04116126 23.32356797 2 26 C-0.97 26 -3.94 26 -7 26 C-7.17015625 25.27554688 -7.3403125 24.55109375 -7.515625 23.8046875 C-9.4414951 15.74737628 -9.4414951 15.74737628 -14 9 C-19.84791769 5.68652621 -25.32978887 4.20861902 -32 5 C-35.09610007 6.30724225 -36.66294032 7.61799902 -38.875 10.125 C-40.46552201 14.18966735 -40.30334309 17.84069747 -39 22 C-35.66597096 27.82026213 -29.64235655 30.25247896 -23.9375 33.3125 C1.85734019 47.57202056 1.85734019 47.57202056 6 60 C7.15067173 69.30733209 5.21775957 76.23671093 0 84 C-5.45456555 90.3318733 -12.79504836 93.94194054 -21 95 C-33.07371719 95.8247444 -49.88738235 95.49417201 -60 88 C-61.17846973 84.95967157 -61.52418555 81.91548018 -61.875 78.6875 C-61.99101563 77.84509766 -62.10703125 77.00269531 -62.2265625 76.13476562 C-62.80457922 71.73426926 -63.13054211 67.44568415 -63 63 C-57.555 62.505 -57.555 62.505 -52 62 C-51.75765625 62.79664062 -51.5153125 63.59328125 -51.265625 64.4140625 C-48.31690193 74.35878997 -48.31690193 74.35878997 -41.5 81.8125 C-35.70930745 84.56307896 -29.13791597 84.97679429 -22.8984375 83.50390625 C-20.10575501 82.45219391 -18.13256507 81.13684137 -16.0625 79 C-14.41751786 74.35534454 -13.74248676 69.79971639 -15 65 C-19.55248095 57.66903592 -26.27841816 54.27122759 -33.8125 50.5625 C-43.44947818 45.80133796 -55.00275377 39.84452073 -59.44921875 29.37109375 C-61.25058941 21.61625692 -61.17753219 13.87393933 -57 7 C-43.07709131 -9.61289742 -18.29348473 -7.81490623 0 0 Z " fill="#E7620E" transform="translate(1003,25)"/>
<path d="M0 0 C6.74018215 -0.10233933 13.48016024 -0.17185505 20.22094727 -0.21972656 C22.50878385 -0.23970626 24.79657026 -0.26689951 27.08422852 -0.30175781 C58.66987502 -0.77061264 58.66987502 -0.77061264 70 10 C75.62154284 15.91741351 76.53269203 21.95470159 76.375 29.8984375 C75.59072315 36.38506065 72.62972046 41.79278764 67.9375 46.3125 C57.39803503 54.21709873 46.68493358 54.95994092 34 54 C33 53 33 53 32.9375 49.4375 C32.958125 48.303125 32.97875 47.16875 33 46 C34.19496094 45.94392578 34.19496094 45.94392578 35.4140625 45.88671875 C45.41367381 45.26713921 45.41367381 45.26713921 53.3125 39.5 C56.17841876 35.25419442 56.21795983 31.71803227 56.3125 26.6875 C56.34988281 25.39199219 56.38726562 24.09648438 56.42578125 22.76171875 C55.93405881 18.41741865 54.74745425 16.35468146 52 13 C45.00418572 8.49158635 38.87236718 9.59149115 30 9 C30.33 35.07 30.66 61.14 31 88 C34.09531099 89.5476555 37.3666763 89.44409451 40.78515625 89.71875 C43 90 43 90 44 91 C44 92.98 44 94.96 44 97 C30.14 97 16.28 97 2 97 C1.67 94.69 1.34 92.38 1 90 C5.455 89.01 5.455 89.01 10 88 C10.02312392 77.84733849 10.04091534 67.6946832 10.05181217 57.54200077 C10.05704089 52.82820267 10.06413834 48.11442253 10.07543945 43.40063477 C10.08626873 38.85544596 10.09227692 34.31027448 10.09487724 29.76507378 C10.09673142 28.02705042 10.10035189 26.28902806 10.10573006 24.55101204 C10.11294103 22.12521405 10.11399092 19.69948854 10.11352539 17.27368164 C10.11712067 16.54791931 10.12071594 15.82215698 10.12442017 15.07440186 C10.408186 11.75400112 10.408186 11.75400112 9 9 C6.67182036 8.63239269 4.3381615 8.29758419 2 8 C1.34 5.36 0.68 2.72 0 0 Z " fill="#A5103B" transform="translate(129,21)"/>
<path d="M0 0 C28.05 0 56.1 0 85 0 C85.76806453 3.07225813 86.12789947 5.09749334 86.1328125 8.15234375 C86.13410156 8.92900391 86.13539063 9.70566406 86.13671875 10.50585938 C86.13285156 11.30830078 86.12898437 12.11074219 86.125 12.9375 C86.12886719 13.73607422 86.13273438 14.53464844 86.13671875 15.35742188 C86.13006998 19.36995566 85.99669139 23.08442668 85 27 C82.69 26.67 80.38 26.34 78 26 C77.79246094 25.16855469 77.58492187 24.33710937 77.37109375 23.48046875 C77.06300781 22.39378906 76.75492188 21.30710937 76.4375 20.1875 C76.14746094 19.10855469 75.85742188 18.02960937 75.55859375 16.91796875 C73.80608518 13.63695646 72.45134047 12.95086487 69.06581116 11.6098175 C65.43985969 10.5394541 61.82243258 10.42526576 58.0625 10.3125 C56.89364258 10.26125977 56.89364258 10.26125977 55.70117188 10.20898438 C53.80125607 10.1273929 51.90065597 10.06200115 50 10 C50.1073993 20.00508136 50.22001175 30.010089 50.33933926 40.01503563 C50.3945786 44.66038996 50.44800022 49.30575057 50.49731445 53.95117188 C50.54494309 58.43158181 50.59728535 62.91191382 50.65294075 67.39223099 C50.67337111 69.10428561 50.69208306 70.81636161 50.70907402 72.52845383 C50.73310298 74.920578 50.7631595 77.3125543 50.79467773 79.70458984 C50.80331093 80.77381432 50.80331093 80.77381432 50.81211853 81.86463928 C50.82056111 85.55649938 50.82056111 85.55649938 52 89 C54.12576782 89.46651207 54.12576782 89.46651207 56.5625 89.625 C57.38878906 89.69976562 58.21507812 89.77453125 59.06640625 89.8515625 C60.02353516 89.92503906 60.02353516 89.92503906 61 90 C61.495 93.465 61.495 93.465 62 97 C48.47 97 34.94 97 21 97 C20.67 94.69 20.34 92.38 20 90 C24.95 89.01 24.95 89.01 30 88 C30.33 62.26 30.66 36.52 31 10 C18.27671865 10.19516009 18.27671865 10.19516009 12 13 C8.78667314 17.07845332 7.50608013 22.09722851 6 27 C4.02 27 2.04 27 0 27 C-1.23671084 24.52657832 -1.12931819 22.86140689 -1.1328125 20.09765625 C-1.13410156 19.12505859 -1.13539063 18.15246094 -1.13671875 17.15039062 C-1.13285156 16.13138672 -1.12898437 15.11238281 -1.125 14.0625 C-1.12886719 13.04736328 -1.13273438 12.03222656 -1.13671875 10.98632812 C-1.13542969 10.01244141 -1.13414062 9.03855469 -1.1328125 8.03515625 C-1.13168457 7.1419165 -1.13055664 6.24867676 -1.12939453 5.32836914 C-1 3 -1 3 0 0 Z " fill="#E55E0F" transform="translate(846,21)"/>
<path d="M0 0 C8.89906291 5.60311368 13.17901925 16.22060005 16 26 C19.01385227 40.75201375 17.14214881 55.27677405 9 68 C4.5154387 73.04622847 -0.09718489 76.55485133 -6.9453125 77.3359375 C-16.87368071 77.45790763 -26.01445017 75.8949659 -33.44140625 68.82421875 C-43.9021429 56.58069992 -45.61591099 42.57606472 -45 27 C-44.06602839 17.27335277 -40.29512857 8.15569823 -33.01171875 1.47265625 C-22.3232826 -6.35169409 -11.59493048 -5.02612866 0 0 Z M-26 18 C-30.73724801 26.27771757 -30.17502713 37.87947391 -27.8203125 46.8671875 C-25.74743961 52.25665701 -22.82576437 56.69021251 -18.125 60.0625 C-14.23989237 61.22803229 -10.98597193 62.09574527 -7 61 C-2.64099802 57.83156244 -0.23406123 53.51507051 0.75390625 48.21875 C1.96602868 37.29040806 0.85316533 25.83094133 -5.546875 16.55859375 C-8.62598258 13.25600256 -12.15954284 12.41410286 -16.5 11.4375 C-20.67013698 12.37578082 -23.28521301 14.76906832 -26 18 Z " fill="#FDFBFC" transform="translate(82,33)"/>
<path d="M0 0 C16.85714286 0 16.85714286 0 22 4 C26.10570913 8.2137541 27.82544459 11.90533502 28.3125 17.75 C28.10775528 23.47207625 27.03656662 28.63524494 23.23046875 33.0546875 C15.53812372 40.14399974 10.9349818 40 0 40 C0 26.8 0 13.6 0 0 Z " fill="#FEFBFA" transform="translate(778,30)"/>
<path d="M0 0 C3.04371987 1.52185994 3.34830884 3.8533273 4.6015625 6.96875 C5.09140625 8.17917969 5.58125 9.38960937 6.0859375 10.63671875 C6.46443848 11.58683838 6.46443848 11.58683838 6.85058594 12.55615234 C7.62285969 14.49462764 8.40423416 16.42922469 9.1875 18.36328125 C13 27.83401538 13 27.83401538 13 29 C5.41 29 -2.18 29 -10 29 C-6.625 17.75 -6.625 17.75 -5.17578125 13.8671875 C-4.71655273 12.6296875 -4.71655273 12.6296875 -4.24804688 11.3671875 C-3.93931641 10.54476562 -3.63058594 9.72234375 -3.3125 8.875 C-2.83200195 7.58335938 -2.83200195 7.58335938 -2.34179688 6.265625 C-1.56399918 4.17601926 -0.78338154 2.08751732 0 0 Z " fill="#FCF6F4" transform="translate(686,47)"/>
</svg>
