<?xml version="1.0" encoding="UTF-8"?>
<svg version="1.1" xmlns="http://www.w3.org/2000/svg" width="2048" height="787">
<path d="M0 0 C675.84 0 1351.68 0 2048 0 C2048 259.71 2048 519.42 2048 787 C1372.16 787 696.32 787 0 787 C0 527.29 0 267.58 0 0 Z M771 176 C770.20980469 176.72703125 769.41960938 177.4540625 768.60546875 178.203125 C748.8027525 196.93073757 737.97332416 223.65499861 733 250 C732.77441406 251.16402344 732.54882812 252.32804687 732.31640625 253.52734375 C726.27744234 291.88517656 733.34880458 332.74764174 746 369 C746.27618164 369.8137207 746.55236328 370.62744141 746.83691406 371.46582031 C758.89160605 406.69056962 777.95090889 440.15655169 800 470 C800.46100098 470.62535645 800.92200195 471.25071289 801.39697266 471.89501953 C806.76672869 479.13008031 812.49225528 486.04635725 818.35546875 492.8828125 C820.76549028 495.70129756 823.07117599 498.59389658 825.375 501.5 C829.39520174 506.45294639 833.7920888 510.9055012 838.33666992 515.3684082 C841.82226519 518.7955427 845.09372914 522.31758072 848.265625 526.0390625 C853.75395024 532.24433113 859.78133193 537.90933213 866.0703125 543.2890625 C868.13308521 545.11799863 870.0659072 547.03580458 872 549 C875.1711603 552.21434731 878.45582753 555.21750963 881.87890625 558.16015625 C884.22491058 560.19508819 886.5173645 562.28290967 888.8125 564.375 C893.07880589 568.22050182 897.451693 571.89731266 901.91796875 575.5078125 C904.13919369 577.30393609 906.34900377 579.11008536 908.55078125 580.9296875 C918.33543807 588.99088198 928.37094654 596.67588938 938.56982422 604.20507812 C940.10780423 605.34102639 941.64357659 606.479975 943.17626953 607.62304688 C961.98446271 621.64410181 981.78598009 634.35862865 1001.8125 646.5625 C1002.82513916 647.18753418 1003.83777832 647.81256836 1004.88110352 648.45654297 C1012.46483664 653.01152628 1019.215308 655.96024301 1028.21875 654.69921875 C1075.50882376 642.81028167 1127.90308158 591.7203493 1163.48828125 559.265625 C1165.57963394 557.37917934 1167.69128867 555.52378803 1169.81640625 553.67578125 C1183.57872239 541.6548194 1197.41682394 529.00836794 1209.23828125 515.04296875 C1211.09052674 512.8950211 1213.0079288 510.81433407 1214.93798828 508.73632812 C1220.54934365 502.68834334 1225.87986403 496.47233805 1231 490 C1231.51433594 489.35289062 1232.02867187 488.70578125 1232.55859375 488.0390625 C1283.40974385 423.91728893 1325.04169093 342.61186488 1316.49609375 258.31640625 C1315.8998539 253.49100214 1315.04739678 248.74686936 1314 244 C1313.8443457 243.29053223 1313.68869141 242.58106445 1313.52832031 241.85009766 C1308.26505508 219.13191189 1295.98501892 198.62408096 1281 181 C1280.34257813 180.22011719 1279.68515625 179.44023437 1279.0078125 178.63671875 C1255.06375452 150.91937537 1219.80320121 136.05130719 1183.87890625 132.28125 C1138.20101427 128.96925783 1097.78862622 149.88664716 1063.75 178.9375 C1057.10013596 184.75017073 1050.82763472 190.96693698 1044.5625 197.1875 C1043.63856445 198.10200928 1042.71462891 199.01651855 1041.76269531 199.95874023 C1036.07742815 205.67129091 1030.88823928 211.59170614 1026 218 C1020.43659268 217.31663974 1018.09625094 215.64807567 1014.5625 211.4375 C1013.84537842 210.61995239 1013.84537842 210.61995239 1013.11376953 209.78588867 C1011.72851517 208.20203908 1010.36216394 206.60371197 1009 205 C1001.55477015 196.37606643 993.74098298 188.32352628 985 181 C984.19828369 180.3196167 984.19828369 180.3196167 983.38037109 179.62548828 C918.79593967 124.99324013 835.39651047 113.90008405 771 176 Z " fill="#FEFEFE" transform="translate(0,0)"/>
<path d="M0 0 C0.75152344 0.20367187 1.50304687 0.40734375 2.27734375 0.6171875 C26.91550969 7.53466217 49.8072731 21.36476702 69.37890625 37.65527344 C70.93591944 38.94684402 72.51445784 40.21233115 74.09375 41.4765625 C82.5963211 48.40351886 90.31408282 56.13033494 98.0625 63.875 C98.61555817 64.42706116 99.16861633 64.97912231 99.73843384 65.5479126 C101.34096939 67.15077545 102.93902666 68.7579475 104.53515625 70.3671875 C105.01176697 70.84500671 105.48837769 71.32282593 105.97943115 71.81512451 C109.18818126 75.06814695 112.11614229 78.46212863 115 82 C118.34288511 78.7070087 121.57291231 75.33405074 124.7565918 71.88720703 C135.26876184 60.50797802 145.79857344 49.59080266 158 40 C158.71542969 39.39414063 159.43085937 38.78828125 160.16796875 38.1640625 C181.33700739 20.40455044 206.31804018 6.28147384 233 -1 C234.00426025 -1.28375488 234.00426025 -1.28375488 235.02880859 -1.57324219 C270.81593852 -11.28543821 311.05518125 -0.21812813 342.40869141 17.59277344 C348.04647333 20.89956283 353.10076623 24.66830949 358 29 C358.82886719 29.72058594 359.65773438 30.44117188 360.51171875 31.18359375 C363.04287549 33.4201595 365.52546664 35.70107868 368 38 C368.71671875 38.639375 369.4334375 39.27875 370.171875 39.9375 C393.34579525 61.58904592 410.95974749 97.03206828 412.14526367 128.90551758 C412.15847868 130.31848061 412.16577485 131.73150813 412.16796875 133.14453125 C412.17129715 133.91319016 412.17462555 134.68184906 412.17805481 135.47380066 C412.18309487 137.09833179 412.18546404 138.72287317 412.18530273 140.34741211 C412.18745998 142.76760243 412.20556509 145.18731375 412.22460938 147.60742188 C412.26445917 158.53239725 411.46504324 169.17712862 410 180 C409.86456787 181.02810791 409.72913574 182.05621582 409.58959961 183.11547852 C401.5881977 239.94039281 374.45526839 296.19600495 339.37744141 341.22558594 C338.04305767 342.9445333 336.72763031 344.67623267 335.41796875 346.4140625 C330.3721469 353.08890481 325.09954431 359.51930053 319.65625 365.87109375 C317.18626898 368.76015296 314.80998176 371.71772089 312.4375 374.6875 C308.67028124 379.32407693 304.59449658 383.50750181 300.32421875 387.6796875 C298.33901526 389.66155451 296.49920546 391.67424023 294.6875 393.8125 C287.86545007 401.76616959 280.26769072 409.22984889 272.27734375 416.00390625 C269.67902193 418.28133755 267.17209465 420.64327427 264.65942383 423.0144043 C258.86317563 428.483416 253.01746893 433.76735175 246.78515625 438.7421875 C244.1785842 440.85522908 241.64455034 443.02882266 239.11621094 445.23364258 C231.38805168 451.96381604 223.34398831 458.19978698 215.16015625 464.36328125 C213.04310537 465.96733969 210.94119608 467.58916524 208.84375 469.21875 C198.14653785 477.51655215 187.15849482 485.3360145 176 493 C175.37512695 493.43344727 174.75025391 493.86689453 174.10644531 494.31347656 C165.76983077 500.09006557 157.16300552 505.42951654 148.51269531 510.7203064 C147.2698983 511.480519 146.0280105 512.24222031 144.78710938 513.00552368 C122.93545208 526.42421389 122.93545208 526.42421389 110 525 C101.62010669 522.28613718 94.11770249 517.96236042 86.6875 513.3125 C85.688396 512.69528076 84.68929199 512.07806152 83.65991211 511.44213867 C76.26516928 506.85046797 68.96075227 502.1394608 61.78027344 497.21972656 C59.91227272 495.93989502 58.03838511 494.66898935 56.1640625 493.3984375 C41.44311671 483.38455956 27.0246213 472.96819698 13 462 C11.86097352 461.1194081 10.72164244 460.23921007 9.58203125 459.359375 C1.76619178 453.30155513 -5.78869822 446.99008925 -13.25439453 440.50732422 C-14.98187975 439.01564678 -16.72090215 437.53879474 -18.46484375 436.06640625 C-29.77325764 426.50300995 -40.6412693 416.49829346 -51.02734375 405.9375 C-52.95082121 404.04830233 -54.94166077 402.3026224 -57 400.5625 C-60.91193973 397.20719992 -64.24948508 393.46772488 -67.6484375 389.6015625 C-70.0127824 386.98585868 -72.47611758 384.5238714 -75 382.0625 C-79.27081868 377.84448897 -83.05597797 373.3884201 -86.796875 368.69921875 C-88.88457158 366.14142028 -91.06296639 363.72791649 -93.3125 361.3125 C-99.40094829 354.61097879 -104.68084374 347.3146762 -110 340 C-110.50466797 339.3095459 -111.00933594 338.6190918 -111.52929688 337.90771484 C-123.31969447 321.72057632 -133.60097723 304.67515344 -143 287 C-143.47050781 286.11634766 -143.94101562 285.23269531 -144.42578125 284.32226562 C-157.72854006 259.10318329 -168.72058374 232.31743686 -174.6875 204.375 C-174.83752472 203.67635834 -174.98754944 202.97771667 -175.14212036 202.25790405 C-184.94882393 156.20059225 -183.7976714 105.56313157 -158.859375 64.36328125 C-156.99401576 61.49547501 -155.05296074 58.73588442 -153 56 C-152.38898437 55.16855469 -151.77796875 54.33710938 -151.1484375 53.48046875 C-126.93532344 21.84399257 -89.31738869 2.41886972 -50.359375 -3.55859375 C-33.44920729 -5.54731338 -16.39369431 -4.49370301 0 0 Z M-137 43 C-137.79019531 43.72703125 -138.58039062 44.4540625 -139.39453125 45.203125 C-159.1972475 63.93073757 -170.02667584 90.65499861 -175 117 C-175.22558594 118.16402344 -175.45117188 119.32804687 -175.68359375 120.52734375 C-181.72255766 158.88517656 -174.65119542 199.74764174 -162 236 C-161.72381836 236.8137207 -161.44763672 237.62744141 -161.16308594 238.46582031 C-149.10839395 273.69056962 -130.04909111 307.15655169 -108 337 C-107.53899902 337.62535645 -107.07799805 338.25071289 -106.60302734 338.89501953 C-101.23327131 346.13008031 -95.50774472 353.04635725 -89.64453125 359.8828125 C-87.23450972 362.70129756 -84.92882401 365.59389658 -82.625 368.5 C-78.60479826 373.45294639 -74.2079112 377.9055012 -69.66333008 382.3684082 C-66.17773481 385.7955427 -62.90627086 389.31758072 -59.734375 393.0390625 C-54.24604976 399.24433113 -48.21866807 404.90933213 -41.9296875 410.2890625 C-39.86691479 412.11799863 -37.9340928 414.03580458 -36 416 C-32.8288397 419.21434731 -29.54417247 422.21750963 -26.12109375 425.16015625 C-23.77508942 427.19508819 -21.4826355 429.28290967 -19.1875 431.375 C-14.92119411 435.22050182 -10.548307 438.89731266 -6.08203125 442.5078125 C-3.86080631 444.30393609 -1.65099623 446.11008536 0.55078125 447.9296875 C10.33543807 455.99088198 20.37094654 463.67588938 30.56982422 471.20507812 C32.10780423 472.34102639 33.64357659 473.479975 35.17626953 474.62304688 C53.98446271 488.64410181 73.78598009 501.35862865 93.8125 513.5625 C94.82513916 514.18753418 95.83777832 514.81256836 96.88110352 515.45654297 C104.46483664 520.01152628 111.215308 522.96024301 120.21875 521.69921875 C167.50882376 509.81028167 219.90308158 458.7203493 255.48828125 426.265625 C257.57963394 424.37917934 259.69128867 422.52378803 261.81640625 420.67578125 C275.57872239 408.6548194 289.41682394 396.00836794 301.23828125 382.04296875 C303.09052674 379.8950211 305.0079288 377.81433407 306.93798828 375.73632812 C312.54934365 369.68834334 317.87986403 363.47233805 323 357 C323.51433594 356.35289062 324.02867187 355.70578125 324.55859375 355.0390625 C375.40974385 290.91728893 417.04169093 209.61186488 408.49609375 125.31640625 C407.8998539 120.49100214 407.04739678 115.74686936 406 111 C405.8443457 110.29053223 405.68869141 109.58106445 405.52832031 108.85009766 C400.26505508 86.13191189 387.98501892 65.62408096 373 48 C372.34257813 47.22011719 371.68515625 46.44023437 371.0078125 45.63671875 C347.06375452 17.91937537 311.80320121 3.05130719 275.87890625 -0.71875 C230.20101427 -4.03074217 189.78862622 16.88664716 155.75 45.9375 C149.10013596 51.75017073 142.82763472 57.96693698 136.5625 64.1875 C135.63856445 65.10200928 134.71462891 66.01651855 133.76269531 66.95874023 C128.07742815 72.67129091 122.88823928 78.59170614 118 85 C112.43659268 84.31663974 110.09625094 82.64807567 106.5625 78.4375 C105.84537842 77.61995239 105.84537842 77.61995239 105.11376953 76.78588867 C103.72851517 75.20203908 102.36216394 73.60371197 101 72 C93.55477015 63.37606643 85.74098298 55.32352628 77 48 C76.19828369 47.3196167 76.19828369 47.3196167 75.38037109 46.62548828 C10.79593967 -8.00675987 -72.60348953 -19.09991595 -137 43 Z " fill="#A6143F" transform="translate(908,133)"/>
</svg>
