<?xml version="1.0" encoding="UTF-8"?>
<svg version="1.1" xmlns="http://www.w3.org/2000/svg" width="2045" height="422">
<path d="M0 0 C0 136.29 0 272.58 0 413 C-674.85 413 -1349.7 413 -2045 413 C-2045 288.92 -2045 164.84 -2045 37 C-2016.11887041 33.14918272 -1987.49679346 29.41926501 -1958.47729492 27.19140625 C-1956.17123929 27.01323067 -1953.86588817 26.8277764 -1951.56054688 26.640625 C-1900.19357799 22.55837125 -1847.55301809 23.73481252 -1796.23944092 27.74676514 C-1792.88149399 28.0092639 -1789.52305818 28.26479975 -1786.16455078 28.52001953 C-1686.88680858 36.14435755 -1588.28046051 50.58348615 -1347.35069275 98.41106796 C-1245.32219924 119.58714086 -1142.95303935 138.98522227 -929.94573975 158.84570312 C-927.04897108 158.99743491 -924.15267162 159.15643541 -921.25634766 159.31640625 C-853.77951894 162.96715414 -785.47007246 162.55080793 -718 159 C-716.76499756 158.93683594 -715.52999512 158.87367188 -714.25756836 158.80859375 C-635.18896775 154.76167798 -556.44767121 147.13388277 -455.54241943 133.48443604 C-452.34120156 133.04666029 -449.1390712 132.61710582 -445.93603516 132.19287109 C-350.56384457 119.54420683 -254.70375239 90.70395097 -130 50 C-128.58071198 49.52207001 -128.58071198 49.52207001 -127.13275146 49.03448486 C-85.56981779 35.01304324 -44.60679109 19.09008148 -4.60546875 1.07421875 C-2 0 -2 0 0 0 Z " fill="#C72653" transform="translate(2045,9)"/>
<path d="M0 0 C0 11.88 0 23.76 0 36 C-3.63 35.67 -7.26 35.34 -11 35 C-14.04972893 34.8826467 -17.07930735 34.79226866 -20.12890625 34.76171875 C-21.36472946 34.74689201 -21.36472946 34.74689201 -22.6255188 34.73176575 C-74.34925243 34.23930054 -123.53675813 48.53239096 -170 71 C-175.84958635 73.72129461 -181.73901801 76.31494323 -187.6875 78.8125 C-192.44746914 80.84782268 -197.09550168 82.99739457 -201.71875 85.33203125 C-203.13161676 86.04316121 -204.54463346 86.75399332 -205.95776367 87.46459961 C-206.74855316 87.86274872 -207.53934265 88.26089783 -208.35409546 88.67111206 C-212.44070886 90.72358643 -216.53427143 92.76207597 -220.62727356 94.80177307 C-224.82987846 96.89624763 -229.03128342 98.99311954 -233.23251057 101.09035587 C-236.32773637 102.63535734 -239.42333034 104.17961135 -242.51977539 105.72216797 C-255.74900648 112.31324634 -268.94096604 118.95740691 -281.99731445 125.88623047 C-287.34886508 128.7231647 -292.76024464 131.43626799 -298.1875 134.125 C-300.07684318 135.06506344 -301.96616566 136.00516849 -303.85546875 136.9453125 C-304.82766357 137.42798584 -305.7998584 137.91065918 -306.80151367 138.40795898 C-309.10567312 139.55485035 -311.407915 140.70511597 -313.70825195 141.85961914 C-322.67544546 146.35881853 -331.6727551 150.79125163 -340.7019043 155.16479492 C-342.8301051 156.19603068 -344.9570728 157.22978018 -347.08398438 158.26367188 C-354.67689505 161.94859364 -362.29552376 165.55264268 -370 169 C-371.62908416 169.73658581 -373.25799316 170.47355917 -374.88671875 171.2109375 C-385.22816327 175.87653836 -395.58821087 180.49351232 -406 185 C-406.74701172 185.32403809 -407.49402344 185.64807617 -408.26367188 185.98193359 C-451.29831332 204.62615274 -451.29831332 204.62615274 -469.25 210.71484375 C-473.13630483 212.0467128 -476.97356503 213.47656143 -480.8125 214.9375 C-490.1477281 218.46692371 -499.55887658 221.76567575 -509 225 C-510.00434082 225.34434082 -511.00868164 225.68868164 -512.04345703 226.04345703 C-565.35449739 244.24503017 -620.32152842 259.2830105 -675.94018555 268.44067383 C-677.67522339 268.72720825 -677.67522339 268.72720825 -679.4453125 269.01953125 C-680.47156738 269.18557861 -681.49782227 269.35162598 -682.55517578 269.52270508 C-684.99443953 269.88574199 -684.99443953 269.88574199 -687 271 C-688.37093709 271.24693301 -689.74981046 271.45065415 -691.13110352 271.63085938 C-691.98832504 271.74490112 -692.84554657 271.85894287 -693.72874451 271.97644043 C-694.66517288 272.09765259 -695.60160126 272.21886475 -696.56640625 272.34375 C-698.58356676 272.61144718 -700.60065402 272.87969682 -702.61767578 273.1484375 C-704.19612274 273.35774902 -704.19612274 273.35774902 -705.80645752 273.57128906 C-710.94624152 274.26126943 -716.08024443 274.99136712 -721.21484375 275.71875 C-769.2730395 282.48991042 -769.2730395 282.48991042 -788.58917236 283.83135986 C-790.28125154 283.94972273 -791.973089 284.07156803 -793.66473389 284.19598389 C-829.97320211 286.8608327 -866.24253991 287.29472041 -902.63537216 287.31052017 C-906.06768187 287.31246748 -909.49997589 287.31757496 -912.93228149 287.3230896 C-941.62637578 287.35726741 -970.201403 286.72181195 -998.85083008 285.1183815 C-1001.96513441 284.94683805 -1005.08016189 284.79081382 -1008.1953125 284.63549805 C-1054.19535747 282.31898262 -1099.92827532 277.9120692 -1145.51629639 271.35675049 C-1147.92341002 271.01100112 -1150.33101473 270.66888885 -1152.73876953 270.32763672 C-1156.40694287 269.80618949 -1160.0735375 269.27483044 -1163.73892212 268.73413086 C-1165.61294789 268.45771497 -1167.48748543 268.18477485 -1169.36206055 267.91210938 C-1190.41993438 264.71176314 -1211.23782292 259.9571001 -1232 255.25 C-1233.14887695 254.98988129 -1234.29775391 254.72976257 -1235.48144531 254.46176147 C-1263.38100733 248.1254955 -1290.7563943 240.60200738 -1318.01904297 231.93457031 C-1320.77701324 231.06990936 -1323.54308401 230.24347682 -1326.31640625 229.4296875 C-1329.91292057 228.35977876 -1333.40870376 227.13990962 -1336.90869141 225.79052734 C-1341.13095935 224.19448443 -1345.41829969 222.77715853 -1349.6875 221.3125 C-1358.36104411 218.31907463 -1366.95424244 215.16123312 -1375.51342773 211.85620117 C-1380.72873491 209.84751339 -1385.96498829 207.94136226 -1391.25 206.125 C-1398.4288705 203.64862855 -1405.46087246 200.84706912 -1412.5 198 C-1421.55557199 194.33838738 -1430.64588513 190.92401472 -1439.87841797 187.74169922 C-1443.91432355 186.33075778 -1447.92572653 184.85289844 -1451.9375 183.375 C-1452.74614502 183.07730713 -1453.55479004 182.77961426 -1454.38793945 182.47290039 C-1458.47358526 180.96074962 -1462.53208039 179.40512529 -1466.5625 177.75 C-1470.48542109 176.14547768 -1474.45665424 174.94368209 -1478.52734375 173.7734375 C-1480.94682835 173.01663189 -1483.22868954 172.11222947 -1485.5625 171.125 C-1492.09649059 168.44230402 -1498.88397346 166.62011702 -1505.6640625 164.6796875 C-1507.98096542 164.00553849 -1510.2879921 163.30501769 -1512.59375 162.59375 C-1547.55416886 151.81468003 -1583.94352987 143.08834026 -1620.38964844 139.29541016 C-1623.65564195 138.92580184 -1626.90780916 138.47460345 -1630.1640625 138.02734375 C-1688.73931925 130.15023396 -1749.24028429 129.14438537 -1808 135 C-1809.30984863 135.12810059 -1810.61969727 135.25620117 -1811.96923828 135.38818359 C-1823.70132285 136.56554745 -1835.32457786 138.06962426 -1846.91015625 140.26171875 C-1850.54879222 140.94115404 -1854.19791799 141.46559713 -1857.86425781 141.97094727 C-1893.8364057 146.98939909 -1930.3590507 156.1733856 -1965 167 C-1966.30644581 167.40265088 -1967.61309956 167.80462746 -1968.91992188 168.20605469 C-1992.59487236 175.48228758 -2016.32382578 182.84668003 -2039.32470703 192.06884766 C-2042 193 -2042 193 -2045 193 C-2045 141.52 -2045 90.04 -2045 37 C-2016.11887041 33.14918272 -1987.49679346 29.41926501 -1958.47729492 27.19140625 C-1956.17123929 27.01323067 -1953.86588817 26.8277764 -1951.56054688 26.640625 C-1900.19357799 22.55837125 -1847.55301809 23.73481252 -1796.23944092 27.74676514 C-1792.88149399 28.0092639 -1789.52305818 28.26479975 -1786.16455078 28.52001953 C-1686.88680858 36.14435755 -1588.28046051 50.58348615 -1347.35069275 98.41106796 C-1245.32219924 119.58714086 -1142.95303935 138.98522227 -929.94573975 158.84570312 C-927.04897108 158.99743491 -924.15267162 159.15643541 -921.25634766 159.31640625 C-853.77951894 162.96715414 -785.47007246 162.55080793 -718 159 C-716.76499756 158.93683594 -715.52999512 158.87367188 -714.25756836 158.80859375 C-635.18896775 154.76167798 -556.44767121 147.13388277 -455.54241943 133.48443604 C-452.34120156 133.04666029 -449.1390712 132.61710582 -445.93603516 132.19287109 C-350.56384457 119.54420683 -254.70375239 90.70395097 -130 50 C-128.58071198 49.52207001 -128.58071198 49.52207001 -127.13275146 49.03448486 C-85.56981779 35.01304324 -44.60679109 19.09008148 -4.60546875 1.07421875 C-2 0 -2 0 0 0 Z " fill="#791439" transform="translate(2045,9)"/>
</svg>
