<?xml version="1.0" encoding="UTF-8"?>
<svg version="1.1" xmlns="http://www.w3.org/2000/svg" width="2048" height="978">
<path d="M0 0 C1.17884766 -0.00794586 2.35769531 -0.01589172 3.57226562 -0.02407837 C56.04136638 -0.2958325 99.41656284 16.06212086 146.41015625 38.0390625 C220.28744832 72.55774779 289.84242945 88.71013826 368.80078125 60.16015625 C394.25708351 50.6811621 418.96014462 39.32287511 443.54956055 27.81835938 C474.09598836 13.55729279 474.09598836 13.55729279 487.125 10.0625 C487.98939697 9.82378174 488.85379395 9.58506348 489.74438477 9.33911133 C552.63037217 -7.48224333 622.95372104 10.28393467 678.22851562 41.89990234 C688.9767846 48.25282406 698.99311806 55.3654397 708.5625 63.375 C709.42488281 64.09558594 710.28726562 64.81617187 711.17578125 65.55859375 C751.72280035 100.51762031 758.76884944 157.78963788 762.8125 208.125 C764.73810052 236.05488135 764.84642559 264.18882918 764.19769287 292.16397095 C763.58720963 318.60568672 763.23035631 345.05152326 763.125 371.5 C763.12078663 372.53918453 763.11657326 373.57836906 763.11223221 374.64904404 C762.99654703 408.24766116 764.30547175 441.60690557 766.5625 475.125 C768.48057282 503.62194466 770.17488686 532.00129985 770.12792969 560.57258606 C770.12508054 562.6901384 770.12783319 564.80762129 770.1315918 566.9251709 C770.18962249 651.70441888 743.43506163 725.70571969 683.5625 786.375 C680.31130467 789.47800549 676.95970957 792.43421825 673.5625 795.375 C672.82515625 796.06207031 672.0878125 796.74914062 671.328125 797.45703125 C640.95746032 825.7384388 603.36562562 846.78686008 566.5625 865.375 C565.69061035 865.81634277 564.8187207 866.25768555 563.92041016 866.71240234 C484.6108898 906.52425552 396.64513471 933.22331437 -11.9375 976 C-13.12000587 976.03153797 -14.30251175 976.06307594 -15.52085114 976.09556961 C-30.61141002 976.49704802 -45.70241456 976.87214092 -60.79431152 977.21969604 C-65.01069322 977.31709567 -69.22688674 977.41945825 -73.44299316 977.52810669 C-122.62582654 978.78657458 -171.83127442 978.56263813 -221.02625942 978.56011152 C-229.65798212 978.56041324 -238.28967329 978.56855525 -246.92138672 978.58081055 C-314.19663924 978.6741363 -381.37322913 977.99747534 -448.60986328 975.70068359 C-449.37936444 975.6744398 -450.14886559 975.648196 -450.94168496 975.62115693 C-465.747505 975.11337064 -480.55084922 974.53229697 -495.34960938 973.84765625 C-496.15507957 973.81055038 -496.96054977 973.77344452 -497.79042816 973.73521423 C-581.48187832 969.84689075 -665.09781449 964.03472395 -1012.4375 894.375 C-1013.43313965 893.91899414 -1014.4287793 893.46298828 -1015.45458984 892.99316406 C-1051.97693588 876.16690061 -1086.3768852 855.21235521 -1116.4375 828.375 C-1117.71947266 827.24191406 -1117.71947266 827.24191406 -1119.02734375 826.0859375 C-1121.51545253 823.86801233 -1123.97909603 821.62580541 -1126.4375 819.375 C-1126.98970215 818.87323242 -1127.5419043 818.37146484 -1128.11083984 817.85449219 C-1140.76653684 806.34433923 -1140.76653684 806.34433923 -1145.68359375 800.44140625 C-1147.48489859 798.31915622 -1149.37056884 796.28995319 -1151.27490234 794.26025391 C-1157.29234029 787.8268161 -1162.76919706 781.06991984 -1168.12304688 774.07910156 C-1169.35231405 772.48543796 -1170.60502969 770.90993855 -1171.859375 769.3359375 C-1183.27005931 754.90477793 -1193.28186168 739.32110489 -1202.4375 723.375 C-1202.99219971 722.41787109 -1202.99219971 722.41787109 -1203.55810547 721.44140625 C-1243.37052615 652.47130304 -1266.64468042 574.36940947 -1275.21746826 495.36340332 C-1275.43290287 493.4165438 -1275.6637953 491.47141459 -1275.89501953 489.52636719 C-1281.44037914 441.6340813 -1281.06142792 390.54313961 -1275.69073486 342.65368652 C-1275.42327123 340.24696507 -1275.16938603 337.83906139 -1274.91748047 335.43066406 C-1268.20662817 271.84237657 -1254.16752961 209.38999751 -1234.75048828 148.51611328 C-1233.6033611 144.91446601 -1232.49720255 141.30151005 -1231.40234375 137.68359375 C-1228.36366396 127.812295 -1225.00510305 119.52390642 -1218.4375 111.375 C-1218.02483887 110.8500293 -1217.61217773 110.32505859 -1217.18701172 109.78417969 C-1191.28936037 76.97728481 -1153.5136611 62.28859936 -1112.86181641 57.32226562 C-1024.49628824 48.09185899 -931.7003536 80.39473103 -820.35067272 112.11713505 C-736.96576189 135.98490837 -651.47860507 159.82738479 -306.72802734 99.59082031 C-301.27512131 96.6963978 -295.79138905 93.86026579 -290.31518555 91.01025391 C-285.96877825 88.74585991 -281.62534767 86.4764935 -277.29467773 84.18212891 C-245.61319496 67.41144584 -213.57302456 51.31812866 -180.5769043 37.28649902 C-178.39090348 36.35514743 -176.20792667 35.41697849 -174.02539062 34.47753906 C-137.92301051 18.96913648 -101.38295337 8.86968544 -62.40270996 3.63928223 C-60.53373799 3.38794212 -58.66576193 3.12922898 -56.79785156 2.87011719 C-37.89614237 0.35162738 -19.04628545 0.06730968 0 0 Z " fill="#8F2953" transform="translate(1278.4375,-0.375)"/>
</svg>
