<?xml version="1.0" encoding="UTF-8"?>
<svg version="1.1" xmlns="http://www.w3.org/2000/svg" width="2048" height="31">
<path d="M0 0 C79.62407723 -0.05959299 159.24830825 -0.10768198 387.82988262 0.84192002 C400.52616184 0.9685864 413.22252457 1.08380226 425.91894531 1.1953125 C535.28742951 2.15768012 644.65150053 3.38838283 986 9 C986.80698145 9.01673799 987.6139629 9.03347597 988.44539833 9.05072117 C1075.4473151 10.85725669 1162.43822953 13.06711847 1292.27687877 16.55794191 C1377.17032933 18.84374675 1462.06389209 21.07231632 1601 24 C1601.86194001 24.01726828 1602.72388002 24.03453655 1603.61193943 24.05232811 C1686.63992135 25.71436196 1769.67123349 27.14536224 2023 30 C2023 30.33 2023 30.66 2023 31 C1355.41 31 687.82 31 0 31 C0 20.77 0 10.54 0 0 Z " fill="#AD3F6B" transform="translate(0,0)"/>
</svg>
