<?xml version="1.0" encoding="UTF-8"?>
<svg version="1.1" xmlns="http://www.w3.org/2000/svg" width="2048" height="86">
<path d="M0 0 C675.84 0 1351.68 0 2048 0 C2048 14.19 2048 28.38 2048 43 C2044.77605469 42.64808594 2041.55210938 42.29617187 2038.23046875 41.93359375 C1955.09857338 32.97123116 1871.69574743 26.82429094 1699.74645996 19.08532715 C1697.17499449 19.00543674 1694.60360604 18.92342502 1692.03222656 18.84082031 C1681.96495714 18.52100138 1671.89707295 18.2672054 1661.8269043 18.05859375 C1659.84723611 18.01756081 1657.8675822 17.97583607 1655.88793945 17.93359375 C1554.62497552 15.78112983 1453.27138734 16.63672709 1063.38916016 48.95263672 C991.05693788 59.22743669 918.55470914 67.59941282 658.125 83.6875 C657.25052593 83.71824867 656.37605186 83.74899734 655.47507858 83.7806778 C654.61728428 83.8107769 653.75948997 83.84087601 652.8757019 83.87188721 C652.13176619 83.89800709 651.38783047 83.92412697 650.62135124 83.95103836 C610.41715395 85.33074838 570.22213194 86.16164728 529.99374962 86.16725707 C527.01618148 86.16798779 524.03861748 86.17015823 521.06105042 86.17275429 C510.49675215 86.18191753 499.93246617 86.1861022 489.36816406 86.18530273 C480.86098315 86.18477484 472.35384877 86.19173224 463.84667969 86.20581055 C419.31886959 86.27778636 374.81351226 86.15266584 330.296875 85.0703125 C329.42925222 85.0492399 328.56162945 85.0281673 327.66771507 85.00645614 C295.23845312 84.2122092 262.80596794 83.25044421 230.39453125 81.90625 C229.56838633 81.87240707 228.7422414 81.83856415 227.89106178 81.80369568 C172.47189891 79.52739885 117.0889908 76.55972362 61.75 72.8125 C60.80892773 72.74890163 59.86785545 72.68530327 58.89826584 72.61977768 C53.48736148 72.25350123 48.07678892 71.88276216 42.66661644 71.50582504 C41.05326618 71.39343253 39.43987671 71.28160083 37.82644081 71.17044449 C25.19596647 70.29689648 12.61367372 69.14669761 0 68 C0 45.56 0 23.12 0 0 Z " fill="#C50528" transform="translate(0,0)"/>
</svg>
