<?xml version="1.0" encoding="UTF-8"?>
<svg version="1.1" xmlns="http://www.w3.org/2000/svg" width="2048" height="111">
<path d="M0 0 C675.84 0 1351.68 0 2048 0 C2044.77425668 1.61287166 2042.44864379 2.49825718 2039.02197266 3.3059082 C2038.01863892 3.54460129 2037.01530518 3.78329437 2035.98156738 4.02922058 C2034.33940247 4.41114311 2034.33940247 4.41114311 2032.6640625 4.80078125 C2031.50757202 5.07324173 2030.35108154 5.34570221 2029.1595459 5.62641907 C2025.98287767 6.37210492 2022.80503517 7.11244518 2019.62619781 7.84882355 C2017.61414895 8.31501418 2015.60243578 8.7826327 2013.59075928 9.25042725 C1983.16186054 16.31803398 1952.61903266 22.80749097 1922 29 C1920.14936951 29.3751474 1920.14936951 29.3751474 1918.26135254 29.75787354 C1833.05197738 47.00480464 1747.13958168 60.58009226 1147.91986084 109.90429688 C1144.29364928 109.99283057 1140.66757418 110.08557346 1137.04150391 110.1796875 C1060.62840484 112.12571633 983.89024732 112.07017588 907.47888184 110.08856201 C903.77932001 109.99438214 900.07963737 109.90706449 896.37988281 109.82080078 C811.64429279 107.82267491 726.93368931 103.81410427 136 31 C135.33503258 30.86911736 134.67006516 30.73823471 133.9849472 30.60338593 C101.58320669 24.22178034 69.32069432 17.29078834 37.14645386 9.85202408 C34.82537304 9.31547577 32.50399719 8.78021676 30.18261719 8.2449646 C26.55204975 7.40676158 22.92303177 6.56214662 19.29521751 5.71210861 C17.95867501 5.39947856 16.62176806 5.08840192 15.28447914 4.77898026 C13.4512724 4.35411605 11.61975392 3.92198691 9.78833008 3.48950195 C8.76145584 3.24891556 7.7345816 3.00832916 6.67658997 2.76045227 C4 2 4 2 0 0 Z " fill="#E32666" transform="translate(0,0)"/>
</svg>
