<svg width="302" height="270" viewBox="0 0 302 270" fill="none" xmlns="http://www.w3.org/2000/svg">
<path d="M150.161 46.5197C136.371 30.3954 120.94 16.7612 100.977 8.09258C68.3161 -6.09105 29.6242 11.8811 14.2859 36.5312C2.96592 54.7316 1.64549 73.6812 3.95088 94.0291C6.31336 114.898 13.9861 133.805 23.9142 151.87C33.0001 168.4 44.47 183.39 57.4672 197.06C82.6266 223.508 111.126 245.783 142.559 264.411C148.127 267.707 153.009 267.857 158.269 264.854C173.05 256.413 187.104 246.774 200.494 236.365C222.149 219.534 242.29 201.02 259.178 179.188C277.549 155.444 291.424 129.602 296.756 99.8011C300.303 79.9668 300.625 60.2182 290.382 41.925C277.963 19.7363 259.071 6.99385 233.647 3.5835C211.364 0.586955 193.264 9.48383 176.248 22.2049C166.648 29.3823 158.419 37.9653 150.739 47.1047" stroke="#A30B37" stroke-width="5" stroke-miterlimit="10"/>
</svg>
